# xmcd
#
# Track frame offsets:
#	150
#	18307
#	36800
#
# Disc length: 732 seconds
#
# Revision: 1
# Processed by: cddbd v1.5.2PL0 Copyright (c) Steve Scherf et al.
# Submitted via: audiograbber 1.83.01
#
DISCID=1902da03
DTITLE=Coolio - The Winner (Maxi CD)
DYEAR=1996
DGENRE=Hip-Hop
TTITLE0=The Winner (Remix)
TTITLE1=The Winner (Instrumental)
TTITLE2=The Winner (Album Version)
EXTD=
EXTT0=
EXTT1=
EXTT2=
PLAYORDER=
